<svg width="1446" height="269" viewBox="0 0 1446 269" xmlns="http://www.w3.org/2000/svg"><title>Group 19</title><g fill="#555C66" fill-rule="evenodd"><path d="M80 241.67c-29.996 0-50.668-25.001-50.668-57.667S50.004 126.33 80 126.33s50.668 25.006 50.668 57.672S110.334 241.669 80 241.669M80 99c-41.663 0-80 35.666-80 85.003C0 233.334 38.337 269 80 269c42 0 80-35.666 80-84.997C160 134.666 121.663 99 80 99M376.666 99c-25.664 0-42.002 14.3-51 26.613h-5.662C310.334 111.975 295.33 99 273.336 99c-22.005 0-36.334 12.975-42.665 20.294h-4.672l-5.667-18.631H201V267h29.333v-94.812c0-30.601 18.668-47.907 40.33-47.907 28.669 0 32.67 30.275 32.67 62.55V267h29.328v-97.138c1.007-29.275 19.338-45.58 40.336-45.58 28.668 0 32.664 30.274 32.664 62.549V267H435v-90.156C435 130.937 414.998 99 376.666 99M560.967 99c-27.537 0-42.465 13.306-48.772 20.62h-3.977l-5.971-18.957H483V267h29.195v-94.812c0-29.275 19.913-47.907 44.795-47.907 32.835 0 37.815 32.938 37.815 62.55V267H624v-90.156C624 130.6 603.107 99 560.967 99M823.67 169.003c-16.338-4.333-32-9.663-32-25 0-13.67 11.999-22.337 27.335-22.337 17.666 0 30.66 11.329 30.66 23.666h27.003c0-23.002-20.333-47.332-57.663-47.332-30.672 0-55.007 16.665-55.007 46.33 0 33.34 31.004 42.34 53.667 48.339 18.336 4.998 34.668 10.327 34.668 27.33 0 16.338-14.666 24.003-30.329 24.003-18.335 0-36.001-10.67-36.001-31.331H759c0 30.33 25 55.329 63.337 55.329C855 268 880 249.67 880 218.67c0-34.336-30.998-43.003-56.33-49.667M945.03 166.335c5.34-26.67 24.018-43.667 48.708-43.667 25.022 0 41.7 18.004 45.706 43.667h-94.415zM994.075 98C952.364 98 915 130 915 181.666 915 233.67 952.364 268 994.402 268c30.362 0 59.057-17.998 71.73-48.333h-30.693c-8.005 13-22.014 21.335-41.037 21.335-28.688 0-48.043-19.338-50.708-50.337H1069.8c3.34-63-35.696-92.665-75.724-92.665zM1188.967 98c-27.537 0-42.465 13.306-48.772 20.62h-3.977l-5.977-18.957H1111V266h29.195v-94.812c0-29.275 19.907-47.907 44.79-47.907 32.84 0 37.82 32.938 37.82 62.55V266H1252v-90.156C1252 129.6 1231.101 98 1188.967 98M1369.993 240.708c-24.892 0-49.785-21.638-49.785-57.585 0-35.952 24.893-57.59 49.785-57.59 21.906 0 47.797 16.647 47.797 57.59 0 40.944-25.89 57.585-47.797 57.585zM1417.79 30v94.87c-10.625-15.647-26.888-26.63-50.117-26.63-42.158 0-76.673 35.616-76.673 84.883 0 49.262 34.515 84.877 76.673 84.877 21.57 0 37.172-9.313 47.46-22.964h5.313l6.299 21.3H1446V30h-28.21zM661 72v25.35c23.01 6.867 26.836 30.657 26.836 61.6V267H717V148.97c0-45.764-18.587-73.628-56-76.97M695.5 0C683.624 0 674 9.623 674 21.497S683.624 43 695.5 43 717 33.371 717 21.497 707.376 0 695.5 0"/></g></svg>